<svg xmlns="http://www.w3.org/2000/svg" xmlns:xlink="http://www.w3.org/1999/xlink" width="1225" height="281" viewBox="0 0 1225 281"><defs><style>.a{clip-path:url(#b);}.b{fill:#fff8e6;}.c{font-size:21px;font-family:OpenSans-Semibold, Open Sans;font-weight:600;}.d{fill:none;stroke:#000;stroke-linecap:round;stroke-width:5px;}</style><clipPath id="b"><rect width="1225" height="281"/></clipPath></defs><g id="a" class="a"><g transform="translate(-71 -148.919)"><rect class="b" width="165" height="165" transform="translate(71 224)"/><path d="M37.05,0C26.861,0,18.525,10.374,18.525,23.156S26.861,46.312,37.05,46.312,55.575,35.938,55.575,23.156,47.238,0,37.05,0ZM17.691,46.312A18.544,18.544,0,0,0,0,64.837V74.1H74.1V64.837A18.479,18.479,0,0,0,56.408,46.312c-5,5.65-11.856,9.262-19.358,9.262S22.693,51.962,17.691,46.312Z" transform="translate(116.592 269.592)"/></g><g transform="translate(-101 -148.919)"><rect class="b" width="165" height="165" transform="translate(366 224)"/><path d="M79.71,69.876,63.973,54.139a3.785,3.785,0,0,0-2.683-1.1H58.717a32.816,32.816,0,1,0-5.682,5.682V61.29a3.785,3.785,0,0,0,1.1,2.683L69.876,79.71a3.773,3.773,0,0,0,5.351,0l4.467-4.467a3.806,3.806,0,0,0,.016-5.367ZM32.831,53.034a20.2,20.2,0,1,1,20.2-20.2A20.192,20.192,0,0,1,32.831,53.034Z" transform="translate(408.096 266.089)"/></g><g transform="translate(-133 -148.919)"><rect class="b" width="165" height="165" transform="translate(663 224)"/><path d="M17.491,82.729a5.829,5.829,0,0,0,.976,3.221l3.112,4.678a5.825,5.825,0,0,0,4.851,2.6H37.666a5.825,5.825,0,0,0,4.851-2.6l3.112-4.678a5.825,5.825,0,0,0,.976-3.221l.007-6.983H17.482ZM0,32.047A31.868,31.868,0,0,0,7.932,53.128c3.008,3.432,7.713,10.6,9.507,16.651.007.047.013.095.02.142H46.635c.007-.047.013-.093.02-.142,1.794-6.049,6.5-13.219,9.507-16.651A32.04,32.04,0,1,0,0,32.047Z" transform="translate(713.453 259.886)"/></g><g transform="translate(-154 -148.919)"><rect class="b" width="165" height="165" transform="translate(949 224)"/><path d="M47.363,2.25H16.555a6.392,6.392,0,0,0-6.43,6.391v74.01a6.581,6.581,0,0,0,6.43,6.624H47.344a6.451,6.451,0,0,0,6.274-6.624V8.641A6.233,6.233,0,0,0,47.363,2.25Zm-18.4,4.468H34.8a.777.777,0,0,1,0,1.554H28.968a.777.777,0,0,1,0-1.554Zm3.011,79.644a3.38,3.38,0,1,1,3.38-3.38A3.382,3.382,0,0,1,31.978,86.362Zm18.163-9.518H13.622a.39.39,0,0,1-.389-.389V12.545a.39.39,0,0,1,.389-.389h36.52a.39.39,0,0,1,.389.389V76.455A.39.39,0,0,1,50.141,76.843Z" transform="translate(999.628 260.737)"/></g><g transform="translate(-162 -148.919)"><rect class="b" width="165" height="165" transform="translate(1222 224)"/><path d="M47.078,2.25C21.075,2.25,0,19.371,0,40.5c0,9.121,3.935,17.47,10.482,24.035C8.183,73.8.5,82.062.4,82.154a1.462,1.462,0,0,0-.276,1.6,1.44,1.44,0,0,0,1.342.883c12.192,0,21.332-5.848,25.856-9.452a56.084,56.084,0,0,0,19.751,3.568c26,0,47.078-17.121,47.078-38.251S73.081,2.25,47.078,2.25ZM23.539,46.385A5.885,5.885,0,1,1,29.424,40.5,5.878,5.878,0,0,1,23.539,46.385Zm23.539,0A5.885,5.885,0,1,1,52.963,40.5,5.878,5.878,0,0,1,47.078,46.385Zm23.539,0A5.885,5.885,0,1,1,76.5,40.5,5.878,5.878,0,0,1,70.617,46.385Z" transform="translate(1257.422 263.057)"/></g><text class="c" transform="translate(10 273.081)"><tspan x="0" y="0">User Research</tspan></text><text class="c" transform="translate(260 273.081)"><tspan x="0" y="0">Define a Problem</tspan></text><text class="c" transform="translate(531 273.081)"><tspan x="0" y="0">Ideate Solutions</tspan></text><text class="c" transform="translate(786 273.081)"><tspan x="0" y="0">Create Prototypes</tspan></text><text class="c" transform="translate(1063 273.081)"><tspan x="0" y="0">Test Prototypes</tspan></text><path d="M36.382,11.822a2.029,2.029,0,0,0-.016,2.857l9.44,9.456H9.878a2.019,2.019,0,0,0,0,4.037H45.791l-9.44,9.456a2.043,2.043,0,0,0,.016,2.857,2.01,2.01,0,0,0,2.841-.016L52,27.582h0a2.267,2.267,0,0,0,.419-.637,1.926,1.926,0,0,0,.155-.776A2.024,2.024,0,0,0,52,24.756L39.208,11.869A1.978,1.978,0,0,0,36.382,11.822Z" transform="translate(182.125 136.016)"/><path d="M36.382,11.822a2.029,2.029,0,0,0-.016,2.857l9.44,9.456H9.878a2.019,2.019,0,0,0,0,4.037H45.791l-9.44,9.456a2.043,2.043,0,0,0,.016,2.857,2.01,2.01,0,0,0,2.841-.016L52,27.582h0a2.267,2.267,0,0,0,.419-.637,1.926,1.926,0,0,0,.155-.776A2.024,2.024,0,0,0,52,24.756L39.208,11.869A1.978,1.978,0,0,0,36.382,11.822Z" transform="translate(447.125 136.016)"/><path d="M36.382,11.822a2.029,2.029,0,0,0-.016,2.857l9.44,9.456H9.878a2.019,2.019,0,0,0,0,4.037H45.791l-9.44,9.456a2.043,2.043,0,0,0,.016,2.857,2.01,2.01,0,0,0,2.841-.016L52,27.582h0a2.267,2.267,0,0,0,.419-.637,1.926,1.926,0,0,0,.155-.776A2.024,2.024,0,0,0,52,24.756L39.208,11.869A1.978,1.978,0,0,0,36.382,11.822Z" transform="translate(712.125 136.016)"/><path d="M36.382,11.822a2.029,2.029,0,0,0-.016,2.857l9.44,9.456H9.878a2.019,2.019,0,0,0,0,4.037H45.791l-9.44,9.456a2.043,2.043,0,0,0,.016,2.857,2.01,2.01,0,0,0,2.841-.016L52,27.582h0a2.267,2.267,0,0,0,.419-.637,1.926,1.926,0,0,0,.155-.776A2.024,2.024,0,0,0,52,24.756L39.208,11.869A1.978,1.978,0,0,0,36.382,11.822Z" transform="translate(977.125 136.016)"/><g transform="translate(-252 -227.919)"><path d="M45.989,41.743a2.41,2.41,0,0,0-3.394-.018l-11.234,11.2V10.255a2.4,2.4,0,0,0-4.8,0V52.921L15.331,41.706a2.428,2.428,0,0,0-3.394.018,2.388,2.388,0,0,0,.018,3.376L27.266,60.3h0a2.693,2.693,0,0,0,.756.5,2.289,2.289,0,0,0,.922.184,2.4,2.4,0,0,0,1.679-.683L45.934,45.1A2.35,2.35,0,0,0,45.989,41.743Z" transform="translate(1100.543 220.044)"/><path d="M31.877,16.256V63.509a2.656,2.656,0,0,1-5.312,0V16.256s-.3-3.218,2.667-3.218S31.877,16.256,31.877,16.256Z" transform="translate(1365.277 214.882)"/><line class="d" x2="265" transform="translate(1129.5 229.5)"/></g></g></svg>