<svg xmlns="http://www.w3.org/2000/svg" xmlns:xlink="http://www.w3.org/1999/xlink" width="1001" height="623" viewBox="0 0 1001 623"><defs><style>.a{clip-path:url(#b);}.b{fill:#fff8e6;}.c,.j,.l{fill:none;}.c{stroke:#2e294e;}.d,.g,.i{fill:#2e294e;}.d,.f,.i{font-size:16px;}.d{font-family:SegoeUI-Bold, Segoe UI;font-weight:700;}.e{fill:#6656cb;}.f,.h{fill:#fff;}.f,.i{font-family:SegoeUI-Semibold, Segoe UI;font-weight:600;}.j{stroke:#ffc41c;stroke-width:4px;stroke-dasharray:10;}.k{stroke:none;}</style><clipPath id="b"><rect width="1001" height="623"/></clipPath></defs><g id="a" class="a"><rect class="h" width="1001" height="623"/><rect class="b" width="980" height="601" transform="translate(11 11)"/><line class="c" y2="447" transform="translate(497.5 87)"/><line class="c" x1="730" transform="translate(132.5 310.5)"/><text class="d" transform="translate(446 549)"><tspan x="6.234" y="17">Low Priority </tspan><tspan x="7.895" y="38">for Edubeat</tspan></text><text class="d" transform="translate(443 30)"><tspan x="6.422" y="17">High Priority </tspan><tspan x="10.895" y="38">for Edubeat</tspan></text><text class="d" transform="translate(877 285)"><tspan x="1.422" y="17">High Priority </tspan><tspan x="16.27" y="38">for Users</tspan></text><text class="d" transform="translate(25 284)"><tspan x="0.734" y="17">Low Priority </tspan><tspan x="12.77" y="38">for Users</tspan></text><g transform="translate(-7731 -7844)"><rect class="e" width="153" height="98" transform="translate(8247 8280)"/><text class="f" transform="translate(8274 8308)"><tspan x="28.91" y="17">Jingle </tspan><tspan x="21.023" y="38">Playlists</tspan></text></g><g transform="translate(-7564 -8088)"><rect class="g" width="153" height="98" transform="translate(8248 8411)"/><text class="f" transform="translate(8272 8437)"><tspan x="0.352" y="17">Share playlists </tspan><tspan x="12.68" y="38">and jingles</tspan></text></g><g transform="translate(-7563 -8345)"><rect class="e" width="153" height="98" transform="translate(8247 8545)"/><text class="f" transform="translate(8280 8551)"><tspan x="25.051" y="17">Lyrics </tspan><tspan x="3.207" y="38">highlighted </tspan><tspan x="5.188" y="59">when track </tspan><tspan x="13.098" y="80">is played</tspan></text></g><g transform="translate(-7731 -8596)"><rect class="e" width="153" height="98" transform="translate(8247 8683)"/><text class="f" transform="translate(8256 8698)"><tspan x="25.211" y="17">List &quot;Browse </tspan><tspan x="13.418" y="38">Jingles&quot; first on </tspan><tspan x="8.039" y="59">the Home screen</tspan></text></g><g transform="translate(-7732 -8615)"><rect class="g" width="153" height="98" transform="translate(8248 8815)"/><text class="f" transform="translate(8275 8831)"><tspan x="9.566" y="17">Fix buttons </tspan><tspan x="1.207" y="38">and headings </tspan><tspan x="15.27" y="59">for clarity</tspan></text></g><g transform="translate(-8090 -8619)"><rect class="h" width="153" height="98" transform="translate(8248 8942)"/><text class="i" transform="translate(8268 8958)"><tspan x="1.32" y="17">Add comments </tspan><tspan x="1.875" y="38">under browsed </tspan><tspan x="33.043" y="59">jingles</tspan></text></g><g transform="translate(-7732 -8746)"><rect class="g" width="153" height="98" transform="translate(8248 9069)"/><text class="f" transform="translate(8268 9106)"><tspan x="16.293" y="17">Dark mode</tspan></text></g><g transform="translate(-7922 -8870)"><rect class="h" width="153" height="98" transform="translate(8248 9193)"/><text class="i" transform="translate(8273 9231)"><tspan x="9.809" y="17">Voice filters</tspan></text></g><g transform="translate(-7922 -8880)"><rect class="h" width="153" height="98" transform="translate(8248 9316)"/><text class="i" transform="translate(8275 9332)"><tspan x="18.895" y="17">Work on </tspan><tspan x="8.656" y="38">jingles with </tspan><tspan x="4.711" y="59">study buddy</tspan></text></g><g class="j" transform="translate(508 78)"><rect class="k" width="340" height="227"/><rect class="l" x="2" y="2" width="336" height="223"/></g></g></svg>