<svg xmlns="http://www.w3.org/2000/svg" xmlns:xlink="http://www.w3.org/1999/xlink" width="1072" height="660" viewBox="0 0 1072 660"><defs><style>.a{clip-path:url(#b);}.b{fill:#f5cc56;}.c,.d,.j,.k,.l{font-size:16px;}.c,.j,.m{font-family:SegoeUI-Bold, Segoe UI;font-weight:700;}.d,.k,.l{font-family:SegoeUI-Semibold, Segoe UI;font-weight:600;}.e,.j,.l,.m{fill:#2e294e;}.f{fill:#6656cb;}.g{fill:#beb4f9;}.h,.k{fill:#fff;}.i{fill:#fff8e6;}.m{font-size:28px;}</style><clipPath id="b"><rect width="1072" height="660"/></clipPath></defs><g id="a" class="a"><rect class="h" width="1072" height="660"/><g transform="translate(3 44)"><rect class="b" width="244" height="311" transform="translate(30 94)"/><text class="c" transform="translate(62 129)"><tspan x="0" y="0">Frequency of Responses</tspan></text><text class="d" transform="translate(33 372)"><tspan x="0" y="0">From most to least (going down)</tspan></text><rect class="e" width="180" height="38" transform="translate(62 156)"/><rect class="f" width="180" height="38" transform="translate(62 204)"/><rect class="g" width="180" height="38" transform="translate(62 252)"/><rect class="h" width="180" height="38" transform="translate(62 300)"/></g><g transform="translate(3 44)"><rect class="i" width="230" height="554" transform="translate(297 39)"/><text class="j" transform="translate(340 73)"><tspan x="-25.465" y="0">Layout</tspan></text><g transform="translate(-6492 -7919)"><rect class="f" width="187" height="103" transform="translate(6811 8010)"/><text class="k" transform="translate(6838 8040)"><tspan x="21.691" y="17">Wants jingle </tspan><tspan x="2.738" y="38">playlists in library</tspan></text></g><g transform="translate(-6722 -8058)"><rect class="e" width="187" height="103" transform="translate(7041 8266)"/><text class="k" transform="translate(7083 8296)"><tspan x="11.066" y="17">Fix buttons </tspan><tspan x="2.707" y="38">and headings</tspan></text></g><g transform="translate(-6716 -7809)"><rect class="f" width="187" height="124" transform="translate(7035 8134)"/><text class="k" transform="translate(7041 8163)"><tspan x="6.527" y="17">Wants &quot;Browse Jingle&quot; </tspan><tspan x="9.695" y="38">first and then &quot;Create </tspan><tspan x="1.063" y="59">Jingle&quot; on Home Screen</tspan></text></g></g><g transform="translate(3 44)"><rect class="i" width="230" height="554" transform="translate(552 39)"/><text class="j" transform="translate(568 73)"><tspan x="0" y="0">Jingle Features</tspan></text><g transform="translate(-6246 -7618)"><rect class="e" width="187" height="105" transform="translate(6820 7709)"/><text class="k" transform="translate(6853 7739)"><tspan x="6.457" y="17">Wants to share </tspan><tspan x="4.613" y="38">jingles/playlists</tspan></text></g><g transform="translate(-6240 -7022)"><rect class="h" width="187" height="102" transform="translate(6814 7232)"/><text class="l" transform="translate(6847 7262)"><tspan x="17.324" y="17">Wants voice </tspan><tspan x="1.023" y="38">changing effects</tspan></text></g><g transform="translate(-6240 -7070)"><rect class="h" width="187" height="104" transform="translate(6814 7396)"/><text class="l" transform="translate(6838 7424)"><tspan x="0.859" y="17">Wants to comment </tspan><tspan x="22.977" y="38">under jingles</tspan></text></g><g transform="translate(-6240 -7116)"><rect class="h" width="187" height="124" transform="translate(6814 7560)"/><text class="l" transform="translate(6838 7591)"><tspan x="13.156" y="17">Wants ability to </tspan><tspan x="14.742" y="38">work on jingles </tspan><tspan x="0.449" y="59">with a study buddy</tspan></text></g></g><g transform="translate(3 44)"><rect class="i" width="230" height="554" transform="translate(807 39)"/><text class="j" transform="translate(827 73)"><tspan x="0" y="0">Display</tspan></text><g transform="translate(-6410 -7618)"><rect class="e" width="187" height="101" transform="translate(7239 7709)"/><text class="k" transform="translate(7281 7737)"><tspan x="10.543" y="17">Wants dark </tspan><tspan x="0.914" y="38">mode scheme</tspan></text></g><g transform="translate(-6410 -7668)"><rect class="f" width="187" height="124" transform="translate(7239 7874)"/><text class="k" transform="translate(7262 7902)"><tspan x="6.191" y="17">Wants lyrics to be </tspan><tspan x="6.883" y="38">highlighted when </tspan><tspan x="4.414" y="59">the track is played</tspan></text></g></g><text class="m" transform="translate(536 50)"><tspan x="-176.675" y="0">Affinity Map (Categorized)</tspan></text></g></svg>