<svg xmlns="http://www.w3.org/2000/svg" xmlns:xlink="http://www.w3.org/1999/xlink" width="2322" height="1520" viewBox="0 0 2322 1520"><defs><style>.a{clip-path:url(#b);}.b,.c,.i,.k{fill:none;}.b,.c{stroke:#000;}.b{stroke-width:5px;}.c{stroke-width:2px;}.d{font-size:51px;font-family:OpenSans-Semibold, Open Sans;font-weight:600;}.e{fill:#213e47;}.f,.l{fill:#fff;}.f,.h{font-size:38px;font-family:OpenSans, Open Sans;}.g{fill:#ddedf2;}.i{stroke:#08a657;stroke-width:7px;stroke-dasharray:38;}.j{stroke:none;}</style><clipPath id="b"><rect width="2322" height="1520"/></clipPath></defs><g id="a" class="a"><rect class="l" width="2322" height="1520"/><path d="M36.654,12.079a2.94,2.94,0,0,0-.022,4.139l13.678,13.7-.022,5.849-13.678,13.7a2.961,2.961,0,0,0,.022,4.139,2.913,2.913,0,0,0,4.117-.022L59.285,34.913h0a3.284,3.284,0,0,0,.607-.922,2.791,2.791,0,0,0,.225-1.125,2.932,2.932,0,0,0-.832-2.047L40.748,12.146A2.866,2.866,0,0,0,36.654,12.079Z" transform="translate(2258.353 1367.31)"/><path d="M36.654,12.079a2.94,2.94,0,0,0-.022,4.139l13.678,13.7-.022,5.849-13.678,13.7a2.961,2.961,0,0,0,.022,4.139,2.913,2.913,0,0,0,4.117-.022L59.285,34.913h0a3.284,3.284,0,0,0,.607-.922,2.791,2.791,0,0,0,.225-1.125,2.932,2.932,0,0,0-.832-2.047L40.748,12.146A2.866,2.866,0,0,0,36.654,12.079Z" transform="translate(78.65 62.107) rotate(-90)"/><g transform="translate(-47.157 -119)"><line class="b" x2="2275.687" transform="translate(82.157 1519.16)"/><line class="b" y1="1467.32" transform="translate(158.657 127.84)"/><line class="c" x2="2174" transform="translate(167.5 861.5)"/><path class="c" d="M0,0V1365" transform="translate(1254.5 145.5)"/><text class="d" transform="translate(707 1615)"><tspan x="-142.342" y="0">Low Impact</tspan></text><text class="d" transform="translate(1803 1615)"><tspan x="-148.742" y="0">High Impact</tspan></text><text class="d" transform="translate(102.157 1190.5) rotate(-90)"><tspan x="-229.089" y="0">Easy to Implement</tspan></text><text class="d" transform="translate(102.157 503.5) rotate(-90)"><tspan x="-307.233" y="0">Impossible to Implement</tspan></text></g><g transform="translate(7676.843 -9886)"><rect class="e" width="403" height="212" transform="translate(-7539 10659)"/><text class="f" transform="translate(-7513 10687)"><tspan x="25.838" y="41">I wish I could see </tspan><tspan x="28.909" y="93">which places are </tspan><tspan x="44.263" y="145">closed or open</tspan></text></g><g transform="translate(8043.843 -9866)"><rect class="e" width="403" height="333" transform="translate(-6804 10639)"/><text class="f" transform="translate(-6778 10667)"><tspan x="20.578" y="41">I wish that I could </tspan><tspan x="53.364" y="93">sort my travel </tspan><tspan x="40.524" y="145">destinations by </tspan><tspan x="97.867" y="197">personal </tspan><tspan x="78.561" y="249">preference</tspan></text></g><g transform="translate(4515.843 -8868)"><rect class="g" width="403" height="374" transform="translate(-4378 8913)"/><text class="h" transform="translate(-4352 8941)"><tspan x="16.282" y="41">What if I could get </tspan><tspan x="5.79" y="93">an estimate of how </tspan><tspan x="18.555" y="145">long it would take </tspan><tspan x="23.992" y="197">to travel during a </tspan><tspan x="22.554" y="249">particular time of </tspan><tspan x="135.561" y="301">day?</tspan></text></g><g transform="translate(6020.843 -10692)"><rect class="e" width="403" height="235" transform="translate(-4781 10718)"/><text class="f" transform="translate(-4755 10746)"><tspan x="72.457" y="41">I wish more </tspan><tspan x="4.667" y="93">obscure places had </tspan><tspan x="56.583" y="145">safety ratings</tspan></text></g><g transform="translate(6382.843 -8748)"><rect class="g" width="403" height="266" transform="translate(-4713 9521)"/><text class="h" transform="translate(-4687 9549)"><tspan x="16.282" y="41">What if I could get </tspan><tspan x="1.587" y="93">special deals to less </tspan><tspan x="46.777" y="145">traveled, local-</tspan><tspan x="46.406" y="197">owned places?</tspan></text></g><g transform="translate(5870.843 -9033)"><rect class="g" width="403" height="218" transform="translate(-4631 10166)"/><text class="h" transform="translate(-4605 10194)"><tspan x="13.675" y="41">What if I could see </tspan><tspan x="0.863" y="93">reviews of locations </tspan><tspan x="69.302" y="145">from locals?</tspan></text></g><g transform="translate(7128.843 -9616)"><rect class="e" width="403" height="230" transform="translate(-5459 10682)"/><text class="f" transform="translate(-5433 10710)"><tspan x="43.196" y="41">I wish I can see </tspan><tspan x="43.122" y="93">what the locals </tspan><tspan x="67.252" y="145">recommend</tspan></text></g><g transform="translate(6511.843 -9845)"><rect class="e" width="403" height="225" transform="translate(-5944 10618)"/><text class="f" transform="translate(-5918 10646)"><tspan x="20.578" y="41">I wish that I could </tspan><tspan x="8.703" y="93">see how expensive </tspan><tspan x="22.841" y="145">places to visit are</tspan></text></g><g transform="translate(6853.843 -9652)"><rect class="g" width="403" height="370" transform="translate(-5184 9652)"/><text class="h" transform="translate(-5158 9680)"><tspan x="44.569" y="41">What if, before </tspan><tspan x="36.674" y="93">taking the trip, I </tspan><tspan x="41.22" y="145">could contact a </tspan><tspan x="111.681" y="197">local to </tspan><tspan x="33.983" y="249">recommend me </tspan><tspan x="111.561" y="301">places?</tspan></text></g><g transform="translate(6945.843 -9363)"><rect class="g" width="403" height="426" transform="translate(-5706 9652)"/><text class="h" transform="translate(-5680 9680)"><tspan x="1.652" y="41">What if I could have </tspan><tspan x="1.16" y="93">all the information I </tspan><tspan x="58.383" y="145">need about a </tspan><tspan x="75.741" y="197">destination </tspan><tspan x="10.048" y="249">(description / what </tspan><tspan x="40.348" y="301">to bring) in one </tspan><tspan x="120.625" y="353">place?</tspan></text></g><g transform="translate(6853.843 -9797)"><rect class="e" width="403" height="316" transform="translate(-5184 10196)"/><text class="f" transform="translate(-5158 10224)"><tspan x="25.838" y="41">I wish I could see </tspan><tspan x="10.02" y="93">the paths that like-</tspan><tspan x="24.984" y="145">minded travelers </tspan><tspan x="36.256" y="197">before me have </tspan><tspan x="125.931" y="249">taken</tspan></text></g><g class="i" transform="translate(1221.843 753)"><rect class="j" width="1052" height="626"/><rect class="k" x="3.5" y="3.5" width="1045" height="619"/></g></g></svg>