<svg xmlns="http://www.w3.org/2000/svg" xmlns:xlink="http://www.w3.org/1999/xlink" width="1470" height="706" viewBox="0 0 1470 706"><defs><style>.a{clip-path:url(#b);}.b,.e{fill:#af0058;}.c,.f,.l{fill:none;}.c,.d{stroke:#af0058;}.c,.d,.f,.g{stroke-width:3px;}.d,.g,.m{fill:#fff;}.e,.i{font-size:21px;font-family:OpenSans-Semibold, Open Sans;font-weight:600;}.f,.g{stroke:#0083af;}.h,.i{fill:#0083af;}.j{font-size:18px;font-family:OpenSans, Open Sans;}.k{stroke:none;}</style><clipPath id="b"><rect width="1470" height="706"/></clipPath></defs><g id="a" class="a"><rect class="m" width="1470" height="706"/><g transform="translate(-8 -2)"><path class="b" d="M36.382,11.822a2.029,2.029,0,0,0-.016,2.857l9.44,9.456-.016,4.037-9.44,9.456a2.043,2.043,0,0,0,.016,2.857,2.01,2.01,0,0,0,2.841-.016L52,27.582h0a2.267,2.267,0,0,0,.419-.637,1.926,1.926,0,0,0,.155-.776A2.024,2.024,0,0,0,52,24.756L39.208,11.869A1.978,1.978,0,0,0,36.382,11.822Z" transform="translate(784.477 381.158) rotate(180)"/><g transform="translate(810.402 48)"><g class="c" transform="translate(-0.402)"><ellipse class="k" cx="308" cy="307.5" rx="308" ry="307.5"/><ellipse class="l" cx="308" cy="307.5" rx="306.5" ry="306"/></g><line class="c" x2="376.533" transform="translate(-72.902 306.82)"/><line class="c" y1="255.231" x2="166.534" transform="translate(308.63 51.589)"/><line class="c" x2="166.534" y2="258.851" transform="translate(308.63 306.82)"/><g transform="translate(260.661 258.851)"><g class="d" transform="translate(-0.063 0.148)"><circle class="k" cx="49" cy="49" r="49"/><circle class="l" cx="49" cy="49" r="47.5"/></g><path class="b" d="M29.434,0C21.339,0,14.717,8.241,14.717,18.4s6.623,18.4,14.717,18.4,14.717-8.241,14.717-18.4S37.528,0,29.434,0ZM14.055,36.792A14.732,14.732,0,0,0,0,51.509v7.358H58.867V51.509A14.68,14.68,0,0,0,44.813,36.792a20.666,20.666,0,0,1-15.379,7.358A20.666,20.666,0,0,1,14.055,36.792Z" transform="translate(19.44 18.535)"/></g></g><g transform="translate(-23 2)"><path class="b" d="M20.476.563A20.476,20.476,0,1,0,40.953,21.039,20.473,20.473,0,0,0,20.476.563Zm6.605,13.871a2.642,2.642,0,1,1-2.642,2.642A2.639,2.639,0,0,1,27.082,14.434Zm-13.211,0a2.642,2.642,0,1,1-2.642,2.642A2.639,2.639,0,0,1,13.871,14.434ZM29.955,28.486a12.334,12.334,0,0,1-18.957,0,1.322,1.322,0,0,1,2.031-1.693,9.7,9.7,0,0,0,14.895,0A1.322,1.322,0,0,1,29.955,28.486Z" transform="translate(1025 92.9)"/><text class="e" transform="translate(1016 138)"><tspan x="0" y="22">Gains</tspan></text></g><g transform="translate(8216 -5476)"><text class="e" transform="translate(-7375 5897)"><tspan x="0" y="22">Pains</tspan></text><path class="b" d="M20.475.562A20.475,20.475,0,1,0,40.95,21.037,20.471,20.471,0,0,0,20.475.562Zm6.6,13.87a2.642,2.642,0,1,1-2.642,2.642A2.639,2.639,0,0,1,27.08,14.433Zm-13.21,0a2.642,2.642,0,1,1-2.642,2.642A2.639,2.639,0,0,1,13.87,14.433ZM27.922,32.447a9.7,9.7,0,0,0-14.894,0A1.322,1.322,0,0,1,11,30.755a12.332,12.332,0,0,1,18.948.008A1.316,1.316,0,0,1,27.922,32.447Z" transform="translate(-7367 5851.962)"/></g><g transform="translate(8423 -5582.088)"><text class="e" transform="translate(-7175 5776)"><tspan x="0.912" y="22">Customer </tspan><tspan x="22.64" y="50">Job(s)</tspan></text><path class="b" d="M23.85,3.375A20.475,20.475,0,1,0,44.325,23.85,20.535,20.535,0,0,0,23.85,3.375Zm-4.2,31.392L9.153,24.273,12.1,21.33l7.56,7.56L35.613,12.933l2.943,2.943Z" transform="translate(-7148.85 5728.713)"/></g></g><g transform="translate(-8 -2)"><g transform="translate(61 57.051)"><g class="f" transform="translate(0 -0.051)"><rect class="k" width="596" height="596"/><rect class="l" x="1.5" y="1.5" width="593" height="593"/></g><line class="f" y1="0.32" x2="374.687" transform="translate(287.813 297.449)"/><line class="f" x2="286.909" y2="296.864" transform="translate(0.905 0.905)"/><line class="f" y1="296.68" x2="286.314" transform="translate(1.5 297.77)"/><g transform="translate(238.94 249.801)"><g class="g" transform="translate(0.06 0.148)"><circle class="k" cx="49" cy="49" r="49"/><circle class="l" cx="49" cy="49" r="47.5"/></g><g transform="translate(18.738 16.42)"><path class="h" d="M59.01,17.318H46.8a8.513,8.513,0,0,0,2.941-6.375A8.934,8.934,0,0,0,40.6,2.25a8.083,8.083,0,0,0-7.085,3.97,8.083,8.083,0,0,0-7.085-3.97,8.934,8.934,0,0,0-9.142,8.693,8.462,8.462,0,0,0,2.941,6.375H8.011a4.631,4.631,0,0,0-4.636,4.636v2.9a.581.581,0,0,0,.58.58H63.067a.581.581,0,0,0,.58-.58v-2.9A4.631,4.631,0,0,0,59.01,17.318ZM40.6,6.307a4.763,4.763,0,0,1,4.883,4.636A4.763,4.763,0,0,1,40.6,15.579H35.713C35.713,8.625,37.9,6.307,40.6,6.307Zm-14.17,0c2.695,0,4.883,2.318,4.883,9.273H26.426a4.763,4.763,0,0,1-4.883-4.636A4.763,4.763,0,0,1,26.426,6.307Z" transform="translate(-3.375 -2.25)"/><path class="h" d="M4.5,16.487V48.651a4.65,4.65,0,0,0,4.636,4.636H30.289V15.328H5.659A1.162,1.162,0,0,0,4.5,16.487Z" transform="translate(-2.182 11.62)"/><path class="h" d="M43.615,15.328H18.984V53.288H40.137a4.65,4.65,0,0,0,4.636-4.636V16.487A1.162,1.162,0,0,0,43.615,15.328Z" transform="translate(13.18 11.62)"/></g></g></g><path class="h" d="M36.382,11.822a2.029,2.029,0,0,0-.016,2.857l9.44,9.456-.016,4.037-9.44,9.456a2.043,2.043,0,0,0,.016,2.857,2.01,2.01,0,0,0,2.841-.016L52,27.582h0a2.267,2.267,0,0,0,.419-.637,1.926,1.926,0,0,0,.155-.776A2.024,2.024,0,0,0,52,24.756L39.208,11.869A1.978,1.978,0,0,0,36.382,11.822Z" transform="translate(676.125 328.842)"/><g transform="translate(7834 -5413)"><text class="i" transform="translate(-7458 5487)"><tspan x="0" y="22">Gain </tspan><tspan x="0" y="50">Creators</tspan></text><path class="h" d="M35.985,0,20.475,15.356l-5.119-5.119L0,25.747l5.119,5.119L15.356,20.475l5.119,5.119L40.95,5.119ZM0,35.831V40.95H40.95V35.831Z" transform="translate(-7508 5495.463)"/></g><g transform="translate(8639.429 -5373)"><text class="i" transform="translate(-8525 5581)"><tspan x="0" y="22">Products </tspan><tspan x="0" y="50">and </tspan><tspan x="0" y="78">Services</tspan></text><path class="h" d="M37.939,2.25H14.927a4.774,4.774,0,0,0-4.8,4.773V62.3a4.915,4.915,0,0,0,4.8,4.948h23A4.818,4.818,0,0,0,42.61,62.3V7.023A4.656,4.656,0,0,0,37.939,2.25ZM24.2,5.587h4.353a.58.58,0,1,1,0,1.161H24.2a.58.58,0,0,1,0-1.161Zm2.249,59.487a2.525,2.525,0,1,1,2.525-2.525A2.526,2.526,0,0,1,26.448,65.074Zm13.566-7.109H12.737a.291.291,0,0,1-.29-.29V9.94a.291.291,0,0,1,.29-.29H40.013a.291.291,0,0,1,.29.29V57.674A.291.291,0,0,1,40.013,57.964Z" transform="translate(-8576.03 5588.75)"/></g><g transform="translate(8917 -5364)"><text class="i" transform="translate(-8434 5741)"><tspan x="0" y="22">Pain </tspan><tspan x="0" y="50">Relievers</tspan></text><path class="h" d="M7.875,2.25A7.871,7.871,0,0,0,0,10.125v15.75a7.875,7.875,0,0,0,15.75,0V10.125A7.871,7.871,0,0,0,7.875,2.25ZM11.25,18H4.5V10.125a3.375,3.375,0,0,1,6.75,0Zm9.823-2.088a.578.578,0,0,0-.865.056A11.184,11.184,0,0,0,35.838,31.6a.572.572,0,0,0,.056-.865ZM37.23,14.576a11.21,11.21,0,0,0-14.513-1.118.572.572,0,0,0-.056.865L37.484,29.145a.578.578,0,0,0,.865-.056A11.2,11.2,0,0,0,37.23,14.576Z" transform="translate(-8479.976 5751.088)"/></g></g><text class="j" transform="translate(1076 115)"><tspan x="0.599" y="19">Trusted reviews</tspan></text><text class="j" transform="translate(933 191)"><tspan x="0.757" y="19">Unique recommedations</tspan></text><text class="j" transform="translate(843 268)"><tspan x="6.951" y="19">Accurate estimates of </tspan><tspan x="15.393" y="43">transportation time</tspan></text><text class="j" transform="translate(1172 263)"><tspan x="23.531" y="19">Find cheap, authentic, </tspan><tspan x="0.289" y="43">local-approved experiences</tspan></text><text class="j" transform="translate(1169 351)"><tspan x="0.018" y="19">Sort by personal preference</tspan></text><text class="j" transform="translate(1182 411)"><tspan x="0.517" y="19">See transportation time</tspan></text><text class="j" transform="translate(1225 471)"><tspan x="10.177" y="19">Read insightful </tspan><tspan x="29.825" y="43">reviews of </tspan><tspan x="34.791" y="67">locations</tspan></text><text class="j" transform="translate(898 387)"><tspan x="16.798" y="19">Not seeing accurate </tspan><tspan x="7.913" y="43">closing/opening times</tspan></text><text class="j" transform="translate(1006 579)"><tspan x="0.495" y="19">Overpriced tourist spots</tspan></text><text class="j" transform="translate(916 529)"><tspan x="0.034" y="19">Trusting local advice may be risky</tspan></text><text class="j" transform="translate(898 455)"><tspan x="5.185" y="19">Seeing the same most popular </tspan><tspan x="16.211" y="43">recommended tourist spots</tspan></text><text class="j" transform="translate(227 142)"><tspan x="0.61" y="19">Reviewer ratings</tspan></text><text class="j" transform="translate(305 200)"><tspan x="0.877" y="19">View trip details on map</tspan></text><text class="j" transform="translate(376 273)"><tspan x="0.018" y="19">Sort by personal preference</tspan></text><text class="j" transform="translate(314 442)"><tspan x="0.806" y="19">Safety rating/safety precautions</tspan></text><text class="j" transform="translate(238 497)"><tspan x="0.671" y="19">Accurate listings of closing/opening times</tspan></text><text class="j" transform="translate(203 552)"><tspan x="0.886" y="19">Local-approved recommendations</tspan></text><text class="j" transform="translate(164 607)"><tspan x="0.928" y="19">Estimate cost of visiting places</tspan></text><text class="j" transform="translate(93 327)"><tspan x="0.948" y="19">Mobile app</tspan></text></g></svg>